<svg width="24" height="23" viewBox="0 0 24 23" fill="none" xmlns="http://www.w3.org/2000/svg">
<path d="M12.1141 2.01802C15.1083 2.01802 15.4629 2.03116 16.6404 2.08369C17.7348 2.13184 18.3258 2.31569 18.7197 2.46891C19.2407 2.67027 19.6171 2.91541 20.0067 3.30501C20.4007 3.69898 20.6414 4.07107 20.8428 4.59199C20.996 4.98596 21.1799 5.5813 21.228 6.6713C21.2806 7.85322 21.2937 8.2078 21.2937 11.1976C21.2937 14.1918 21.2806 14.5464 21.228 15.724C21.1799 16.8183 20.996 17.4093 20.8428 17.8033C20.6414 18.3242 20.3963 18.7006 20.0067 19.0902C19.6127 19.4842 19.2407 19.725 18.7197 19.9263C18.3258 20.0796 17.7304 20.2634 16.6404 20.3116C15.4585 20.3641 15.1039 20.3772 12.1141 20.3772C9.11989 20.3772 8.76531 20.3641 7.58777 20.3116C6.49339 20.2634 5.90243 20.0796 5.50846 19.9263C4.98754 19.725 4.61107 19.4798 4.22148 19.0902C3.8275 18.6963 3.58674 18.3242 3.38538 17.8033C3.23216 17.4093 3.04831 16.8139 3.00016 15.724C2.94763 14.542 2.93449 14.1875 2.93449 11.1976C2.93449 8.20342 2.94763 7.84884 3.00016 6.6713C3.04831 5.57692 3.23216 4.98596 3.38538 4.59199C3.58674 4.07107 3.83188 3.6946 4.22148 3.30501C4.61545 2.91103 4.98754 2.67027 5.50846 2.46891C5.90243 2.31569 6.49777 2.13184 7.58777 2.08369C8.76531 2.03116 9.11989 2.01802 12.1141 2.01802ZM12.1141 0C9.07174 0 8.6909 0.0131325 7.49584 0.0656624C6.30516 0.118192 5.48657 0.310802 4.77742 0.586584C4.03762 0.875498 3.41164 1.25634 2.79004 1.88232C2.16406 2.50393 1.78321 3.12991 1.4943 3.86533C1.21852 4.57886 1.02591 5.39307 0.973377 6.58375C0.920847 7.78318 0.907715 8.16402 0.907715 11.2064C0.907715 14.2487 0.920847 14.6296 0.973377 15.8246C1.02591 17.0153 1.21852 17.8339 1.4943 18.5431C1.78321 19.2829 2.16406 19.9088 2.79004 20.5304C3.41164 21.152 4.03762 21.5373 4.77304 21.8218C5.48657 22.0976 6.30078 22.2902 7.49146 22.3427C8.68652 22.3952 9.06736 22.4084 12.1097 22.4084C15.1521 22.4084 15.5329 22.3952 16.728 22.3427C17.9186 22.2902 18.7372 22.0976 19.4464 21.8218C20.1818 21.5373 20.8078 21.152 21.4294 20.5304C22.051 19.9088 22.4362 19.2829 22.7208 18.5474C22.9965 17.8339 23.1891 17.0197 23.2417 15.829C23.2942 14.634 23.3073 14.2531 23.3073 11.2108C23.3073 8.1684 23.2942 7.78756 23.2417 6.5925C23.1891 5.40182 22.9965 4.58323 22.7208 3.87408C22.445 3.12991 22.0641 2.50393 21.4382 1.88232C20.8165 1.26072 20.1906 0.875498 19.4551 0.590961C18.7416 0.315179 17.9274 0.12257 16.7367 0.0700399C15.5373 0.0131325 15.1565 0 12.1141 0Z" fill="white"/>
<path d="M12.1139 5.44995C8.93589 5.44995 6.35754 8.02829 6.35754 11.2064C6.35754 14.3844 8.93589 16.9628 12.1139 16.9628C15.292 16.9628 17.8703 14.3844 17.8703 11.2064C17.8703 8.02829 15.292 5.44995 12.1139 5.44995ZM12.1139 14.9404C10.0521 14.9404 8.37994 13.2682 8.37994 11.2064C8.37994 9.14455 10.0521 7.47235 12.1139 7.47235C14.1757 7.47235 15.8479 9.14455 15.8479 11.2064C15.8479 13.2682 14.1757 14.9404 12.1139 14.9404Z" fill="white"/>
<path d="M19.4419 5.22231C19.4419 5.96648 18.8378 6.5662 18.098 6.5662C17.3538 6.5662 16.7541 5.96211 16.7541 5.22231C16.7541 4.47814 17.3582 3.87842 18.098 3.87842C18.8378 3.87842 19.4419 4.48251 19.4419 5.22231Z" fill="white"/>
</svg>
