<svg width="20" height="23" viewBox="0 0 20 23" fill="none" xmlns="http://www.w3.org/2000/svg">
<path d="M8.16579 9.4021C7.52702 9.4021 7.02274 9.96242 7.02274 10.646C7.02274 11.3296 7.53823 11.8899 8.16579 11.8899C8.80455 11.8899 9.30884 11.3296 9.30884 10.646C9.32004 9.96242 8.80455 9.4021 8.16579 9.4021ZM12.2561 9.4021C11.6174 9.4021 11.1131 9.96242 11.1131 10.646C11.1131 11.3296 11.6286 11.8899 12.2561 11.8899C12.8949 11.8899 13.3992 11.3296 13.3992 10.646C13.3992 9.96242 12.8949 9.4021 12.2561 9.4021Z" fill="white"/>
<path d="M17.7025 0H2.68598C1.41966 0 0.388672 1.03099 0.388672 2.30851V17.4595C0.388672 18.7371 1.41966 19.7681 2.68598 19.7681H15.394L14.8001 17.6949L16.2345 19.0284L17.5905 20.2835L19.9998 22.4128V2.30851C19.9998 1.03099 18.9688 0 17.7025 0ZM13.3769 14.6355C13.3769 14.6355 12.9734 14.1537 12.6372 13.7278C14.1053 13.3132 14.6656 12.3943 14.6656 12.3943C14.2061 12.6968 13.7691 12.9097 13.3769 13.0554C12.8165 13.2908 12.2786 13.4477 11.7519 13.5373C10.6761 13.739 9.68997 13.683 8.84949 13.5261C8.21072 13.4028 7.66161 13.2235 7.20215 13.0442C6.9444 12.9434 6.66424 12.8201 6.38408 12.6632C6.35046 12.6408 6.31685 12.6296 6.28323 12.6072C6.26081 12.596 6.24961 12.5848 6.2384 12.5736C6.03669 12.4615 5.92462 12.383 5.92462 12.383C5.92462 12.383 6.46253 13.2796 7.88574 13.7054C7.54955 14.1312 7.13491 14.6355 7.13491 14.6355C4.6583 14.5571 3.71697 12.9322 3.71697 12.9322C3.71697 9.32371 5.33068 6.39884 5.33068 6.39884C6.9444 5.18855 8.47968 5.22217 8.47968 5.22217L8.59174 5.35665C6.57459 5.93938 5.64446 6.82468 5.64446 6.82468C5.64446 6.82468 5.891 6.69021 6.30564 6.4997C7.50472 5.973 8.45726 5.82732 8.84949 5.7937C8.91673 5.78249 8.97276 5.77129 9.04 5.77129C9.72358 5.68163 10.4968 5.65922 11.3037 5.74887C12.3683 5.87214 13.5113 6.18592 14.6768 6.82468C14.6768 6.82468 13.7915 5.98421 11.8864 5.40147L12.0433 5.22217C12.0433 5.22217 13.5786 5.18855 15.1923 6.39884C15.1923 6.39884 16.806 9.32371 16.806 12.9322C16.806 12.9322 15.8535 14.5571 13.3769 14.6355V14.6355Z" fill="white"/>
</svg>
