<svg width="24" height="13" viewBox="0 0 24 13" fill="none" xmlns="http://www.w3.org/2000/svg">
<path d="M13.3021 6.34957C13.3021 9.72476 10.4359 12.4609 6.9003 12.4609C3.36473 12.4609 0.498535 9.72476 0.498535 6.34957C0.498535 2.97439 3.36473 0.238281 6.9003 0.238281C10.4359 0.238281 13.3021 2.97439 13.3021 6.34957Z" fill="white"/>
<path d="M20.3249 6.34959C20.3249 9.52681 18.892 12.1024 17.124 12.1024C15.3563 12.1024 13.9232 9.52681 13.9232 6.34959C13.9232 3.17246 15.3563 0.59689 17.124 0.59689C18.892 0.59689 20.3249 3.17246 20.3249 6.34959Z" fill="white"/>
<path d="M23.1976 6.3496C23.1976 9.19625 22.6935 11.5039 22.0718 11.5039C21.4501 11.5039 20.9462 9.19625 20.9462 6.3496C20.9462 3.50304 21.4501 1.1954 22.0718 1.1954C22.6935 1.1954 23.1976 3.50304 23.1976 6.3496Z" fill="white"/>
</svg>
