<svg width="1441" height="674" viewBox="0 0 1441 674" fill="none" xmlns="http://www.w3.org/2000/svg">
<path d="M0 1H1439.5M0 68.2328H1439.5M0 135.466H1439.5M0 202.698H1439.5M0 269.931H1439.5M0 337.164H1439.5M0 404.397H1439.5M0 471.63H1439.5M0 538.862H1439.5M0 606.095H1439.5M0 673.328H1439.5M0.499827 1.67216L0.499791 674M111.231 1.67216L111.231 674M221.961 1.67216L221.961 674M332.692 1.67216L332.692 674M443.423 1.67216L443.423 674M554.154 1.67216V674M664.885 1.67216V674M775.615 1.67216V674M886.346 1.67216V674M997.077 1.67216V674M1107.81 1.67216L1107.81 674M1218.54 1.67216L1218.54 674M1329.27 1.67216L1329.27 674M1440 1.67216L1440 674" stroke="#8855F4" stroke-opacity="0.2"/>
</svg>
