<svg width="23" height="19" viewBox="0 0 23 19" fill="none" xmlns="http://www.w3.org/2000/svg">
<path d="M7.75663 18.953C15.9908 18.953 20.4959 11.8987 20.4959 5.78308C20.4959 5.58476 20.4916 5.38204 20.4831 5.18372C21.3595 4.52853 22.1157 3.71697 22.7164 2.78719C21.9002 3.1626 21.0337 3.40777 20.1463 3.51435C21.0806 2.93537 21.7802 2.02582 22.1154 0.954308C21.2364 1.49283 20.2752 1.8727 19.2729 2.07766C18.5975 1.33582 17.7046 0.844638 16.7322 0.680048C15.7597 0.515458 14.7619 0.686628 13.893 1.1671C13.0241 1.64756 12.3325 2.41057 11.9251 3.33814C11.5177 4.26571 11.4173 5.30619 11.6393 6.2987C9.85951 6.20637 8.11838 5.7284 6.52876 4.89579C4.93914 4.06317 3.53651 2.8945 2.41181 1.46552C1.84018 2.4844 1.66526 3.69007 1.9226 4.83749C2.17994 5.98491 2.85023 6.98798 3.79725 7.64284C3.08629 7.61951 2.3909 7.42162 1.76854 7.06552V7.12281C1.7679 8.19205 2.12546 9.22852 2.78043 10.056C3.43541 10.8836 4.34737 11.451 5.36131 11.662C4.70271 11.8483 4.01149 11.8755 3.34112 11.7414C3.62723 12.6609 4.18391 13.4652 4.93345 14.0419C5.68299 14.6187 6.588 14.9391 7.52217 14.9585C5.93622 16.2464 3.97711 16.945 1.96037 16.9417C1.60272 16.9411 1.24542 16.9184 0.890381 16.8738C2.93917 18.2326 5.32246 18.9543 7.75663 18.953Z" fill="white"/>
</svg>
